<svg width="92" height="71" viewBox="0 0 92 71" fill="none" xmlns="http://www.w3.org/2000/svg">
<path d="M22.0011 29.3206C21.0228 29.3206 20.084 29.4705 19.1496 29.6072C19.4523 28.5844 19.7637 27.5439 20.2638 26.6092C20.764 25.2513 21.5448 24.0741 22.3213 22.8882C22.9706 21.6052 24.1156 20.7367 24.9579 19.6389C25.8396 18.5719 27.0417 17.8621 27.9936 16.976C28.9281 16.0501 30.152 15.5872 31.1259 14.9347C32.1437 14.3483 33.0298 13.7002 33.9774 13.3916L36.342 12.4128L38.4214 11.5443L36.2937 3L33.6747 3.63487C32.8368 3.84649 31.8147 4.09338 30.6521 4.38878C29.4633 4.60922 28.1954 5.21323 26.7828 5.76433C25.3878 6.39038 23.7734 6.81363 22.2731 7.81884C20.7639 8.77996 19.0223 9.58236 17.4869 10.8697C15.9997 12.1968 14.2055 13.3475 12.8806 15.0361C11.4329 16.6144 10.0028 18.2721 8.89288 20.1591C7.60751 21.9579 6.73451 23.9331 5.81325 25.8862C4.97973 27.8393 4.30853 29.8365 3.76016 31.7764C2.72046 35.6649 2.25544 39.3595 2.07557 42.5206C1.92642 45.6862 2.01416 48.3182 2.19841 50.2228C2.26421 51.1222 2.38705 51.9952 2.47479 52.5992L2.58446 53.3399L2.69852 53.3134C3.47879 56.9764 5.27499 60.3425 7.87934 63.0224C10.4837 65.7023 13.7898 67.5865 17.4151 68.4569C21.0405 69.3274 24.837 69.1486 28.3654 67.9412C31.8939 66.7337 35.0101 64.5471 37.3536 61.6341C39.6972 58.7212 41.1722 55.2009 41.6081 51.4807C42.0441 47.7604 41.4231 43.9921 39.817 40.6117C38.2109 37.2313 35.6854 34.377 32.5326 32.3788C29.3798 30.3807 25.7285 29.3204 22.0011 29.3206ZM70.2574 29.3206C69.2791 29.3206 68.3403 29.4705 67.4059 29.6072C67.7086 28.5844 68.0201 27.5439 68.5202 26.6092C69.0203 25.2513 69.8012 24.0741 70.5777 22.8882C71.2269 21.6052 72.3719 20.7367 73.2142 19.6389C74.096 18.5719 75.298 17.8621 76.25 16.976C77.1844 16.0501 78.4084 15.5872 79.3823 14.9347C80.4 14.3483 81.2862 13.7002 82.2338 13.3916L84.5983 12.4128L86.6778 11.5443L84.5501 3L81.9311 3.63487C81.0932 3.84649 80.071 4.09338 78.9085 4.38878C77.7196 4.60922 76.4518 5.21323 75.0392 5.76433C73.6485 6.39479 72.0298 6.81363 70.5294 7.82325C69.0203 8.78437 67.2787 9.58677 65.7433 10.8741C64.2561 12.2012 62.4618 13.3519 61.137 15.0361C59.6893 16.6144 58.2591 18.2721 57.1492 20.1591C55.8639 21.9579 54.9909 23.9331 54.0696 25.8862C53.2361 27.8393 52.5649 29.8365 52.0165 31.7764C50.9768 35.6649 50.5118 39.3595 50.3319 42.5206C50.1828 45.6862 50.2705 48.3182 50.4548 50.2228C50.5206 51.1222 50.6434 51.9952 50.7312 52.5992L50.8408 53.3399L50.9549 53.3134C51.7352 56.9764 53.5314 60.3425 56.1357 63.0224C58.7401 65.7023 62.0461 67.5865 65.6715 68.4569C69.2969 69.3274 73.0934 69.1486 76.6218 67.9412C80.1503 66.7337 83.2665 64.5471 85.61 61.6341C87.9535 58.7212 89.4286 55.2009 89.8645 51.4807C90.3004 47.7604 89.6795 43.9921 88.0734 40.6117C86.4673 37.2313 83.9418 34.377 80.789 32.3788C77.6361 30.3807 73.9848 29.3204 70.2574 29.3206Z" fill="#F1C52B" stroke="white" stroke-width="4"/>
</svg>
