<svg width="12" height="12" viewBox="0 0 12 12" fill="none" xmlns="http://www.w3.org/2000/svg">
<path d="M3.76533 7.6266L5.998 9.6L8.23133 7.6266C8.36903 7.50741 8.47858 7.36443 8.55341 7.20622C8.62824 7.04802 8.66681 6.87784 8.66681 6.7059C8.66681 6.53396 8.62824 6.36378 8.55341 6.20558C8.47858 6.04737 8.36903 5.90439 8.23133 5.7852C7.95373 5.5386 7.57938 5.40033 7.18933 5.40033C6.79929 5.40033 6.42493 5.5386 6.14733 5.7852L5.998 5.9166L5.84867 5.7852C5.57118 5.53864 5.19694 5.40039 4.807 5.40039C4.41706 5.40039 4.04282 5.53864 3.76533 5.7852C3.62763 5.90439 3.51809 6.04737 3.44326 6.20558C3.36843 6.36378 3.32986 6.53396 3.32986 6.7059C3.32986 6.87784 3.36843 7.04802 3.44326 7.20622C3.51809 7.36443 3.62763 7.50741 3.76533 7.6266Z" fill="white"/>
<path d="M10.6667 1.2H9.33333V0H8V1.2H4V0H2.66667V1.2H1.33333C0.598 1.2 0 1.7382 0 2.4V10.8C0 11.4618 0.598 12 1.33333 12H10.6667C11.402 12 12 11.4618 12 10.8V2.4C12 1.7382 11.402 1.2 10.6667 1.2ZM10.668 10.8H1.33333V3.6H10.6667L10.668 10.8Z" fill="white"/>
</svg>
