<svg width="24" height="25" viewBox="0 0 24 25" fill="none" xmlns="http://www.w3.org/2000/svg">
<path d="M15.75 12.762C15.75 13.7565 15.3549 14.7104 14.6517 15.4136C13.9484 16.1169 12.9946 16.512 12 16.512C11.0054 16.512 10.0516 16.1169 9.34835 15.4136C8.64509 14.7104 8.25 13.7565 8.25 12.762C8.25 12.5482 8.2725 12.3395 8.31125 12.137H7V17.1332C7 17.4807 7.28125 17.762 7.62875 17.762H16.3725C16.539 17.7616 16.6986 17.6952 16.8163 17.5774C16.9339 17.4595 17 17.2998 17 17.1332V12.137H15.6888C15.7275 12.3395 15.75 12.5482 15.75 12.762V12.762ZM12 15.262C12.3284 15.2619 12.6535 15.1971 12.9569 15.0714C13.2603 14.9456 13.5359 14.7614 13.768 14.5291C14.0002 14.2968 14.1843 14.0211 14.3099 13.7177C14.4355 13.4143 14.5001 13.0891 14.5 12.7607C14.4999 12.4323 14.4352 12.1072 14.3094 11.8038C14.1837 11.5005 13.9994 11.2248 13.7671 10.9927C13.5349 10.7605 13.2592 10.5764 12.9557 10.4508C12.6523 10.3252 12.3271 10.2606 11.9987 10.2607C11.3355 10.2609 10.6996 10.5245 10.2307 10.9936C9.76188 11.4626 9.49858 12.0988 9.49875 12.762C9.49892 13.4252 9.76253 14.0611 10.2316 14.53C10.7007 14.9988 11.3368 15.2621 12 15.262V15.262ZM15 10.137H16.4988C16.5983 10.137 16.6938 10.0975 16.7644 10.0272C16.8349 9.95691 16.8747 9.86153 16.875 9.76196V8.26321C16.875 8.16343 16.8354 8.06772 16.7648 7.99716C16.6942 7.9266 16.5985 7.88696 16.4988 7.88696H15C14.9002 7.88696 14.8045 7.9266 14.734 7.99716C14.6634 8.06772 14.6238 8.16343 14.6238 8.26321V9.76196C14.625 9.96821 14.7937 10.137 15 10.137V10.137ZM12 0.761963C8.8174 0.761963 5.76515 2.02624 3.51472 4.27668C1.26428 6.52712 0 9.57937 0 12.762C0 15.9446 1.26428 18.9968 3.51472 21.2472C5.76515 23.4977 8.8174 24.762 12 24.762C13.5759 24.762 15.1363 24.4516 16.5922 23.8485C18.0481 23.2455 19.371 22.3615 20.4853 21.2472C21.5996 20.1329 22.4835 18.8101 23.0866 17.3542C23.6896 15.8983 24 14.3378 24 12.762C24 11.1861 23.6896 9.62567 23.0866 8.16976C22.4835 6.71385 21.5996 5.39098 20.4853 4.27668C19.371 3.16238 18.0481 2.27846 16.5922 1.67541C15.1363 1.07235 13.5759 0.761963 12 0.761963V0.761963ZM18.25 17.6232C18.25 18.387 17.625 19.012 16.8613 19.012H7.13875C6.375 19.012 5.75 18.387 5.75 17.6232V7.90071C5.75 7.13696 6.375 6.51196 7.13875 6.51196H16.8613C17.625 6.51196 18.25 7.13696 18.25 7.90071V17.6232V17.6232Z" fill="#4674AF"/>
</svg>
