<svg width="22" height="18" viewBox="0 0 22 18" fill="none" xmlns="http://www.w3.org/2000/svg">
<path d="M3.47368 0H18.5263C19.4476 0 20.3311 0.379285 20.9826 1.05442C21.634 1.72955 22 2.64522 22 3.6V14.4C22 15.3548 21.634 16.2705 20.9826 16.9456C20.3311 17.6207 19.4476 18 18.5263 18H3.47368C2.55241 18 1.66886 17.6207 1.01742 16.9456C0.365977 16.2705 0 15.3548 0 14.4V3.6C0 2.64522 0.365977 1.72955 1.01742 1.05442C1.66886 0.379285 2.55241 0 3.47368 0V0ZM3.47368 1.2C2.90863 1.2 2.38989 1.41 1.98811 1.7592L11 7.824L20.0119 1.7592C19.5957 1.3973 19.0696 1.19926 18.5263 1.2H3.47368ZM11 9.2544L1.31305 2.736C1.21033 3.01161 1.15773 3.30455 1.15789 3.6V14.4C1.15789 15.0365 1.40188 15.647 1.83617 16.0971C2.27047 16.5471 2.8595 16.8 3.47368 16.8H18.5263C19.1405 16.8 19.7295 16.5471 20.1638 16.0971C20.5981 15.647 20.8421 15.0365 20.8421 14.4V3.6C20.8421 3.2952 20.7877 3.0036 20.6869 2.736L11 9.2532V9.2544Z" fill="#0E1825"/>
</svg>
