<svg width="24" height="25" viewBox="0 0 24 25" fill="none" xmlns="http://www.w3.org/2000/svg">
<path d="M12 0.761963C5.3725 0.761963 0 6.13446 0 12.762C0 19.3895 5.3725 24.762 12 24.762C18.6275 24.762 24 19.3895 24 12.762C24 6.13446 18.6275 0.761963 12 0.761963ZM16.8813 10.592C16.8863 10.6945 16.8875 10.797 16.8875 10.897C16.8875 14.022 14.5113 17.6232 10.1638 17.6232C8.87912 17.6253 7.62121 17.2564 6.54125 16.5607C6.725 16.5832 6.91375 16.592 7.105 16.592C8.2125 16.592 9.23125 16.2157 10.04 15.5807C9.54715 15.571 9.06959 15.4078 8.67389 15.1139C8.27819 14.8199 7.98406 14.4098 7.8325 13.9407C8.18644 14.008 8.55106 13.9939 8.89875 13.8995C8.36381 13.7913 7.88275 13.5014 7.53713 13.079C7.19152 12.6567 7.00263 12.1277 7.0025 11.582V11.5532C7.32125 11.7295 7.68625 11.837 8.07375 11.8495C7.57225 11.5156 7.21723 11.0028 7.08131 10.4159C6.94538 9.82896 7.03881 9.21228 7.3425 8.69196C7.93619 9.42196 8.67658 10.0191 9.51571 10.4449C10.3548 10.8706 11.274 11.1153 12.2137 11.1632C12.0943 10.6561 12.1457 10.1237 12.36 9.64884C12.5743 9.17397 12.9395 8.7832 13.3988 8.53729C13.8582 8.29139 14.3858 8.20412 14.8999 8.28905C15.4139 8.37399 15.8855 8.62637 16.2413 9.00696C16.7702 8.90231 17.2775 8.70828 17.7413 8.43321C17.565 8.98088 17.1958 9.44593 16.7025 9.74196C17.1711 9.68553 17.6286 9.55956 18.06 9.36821C17.7431 9.84308 17.3439 10.2575 16.8813 10.592V10.592Z" fill="#4674AF"/>
</svg>
