<svg width="64" height="64" viewBox="0 0 64 64" fill="none" xmlns="http://www.w3.org/2000/svg">
<circle cx="32" cy="32" r="32" fill="white"/>
<path fill-rule="evenodd" clip-rule="evenodd" d="M32.0723 47.1667H32.1027C40.6217 47.1667 47.5493 40.2577 47.561 31.7935C47.5663 29.7708 47.1688 27.7673 46.3916 25.8998C45.6144 24.0323 44.4732 22.3384 43.0343 20.9167C40.1177 18 36.2408 16.39 32.1085 16.39C23.5778 16.39 16.6443 23.299 16.6443 31.769C16.6442 34.6628 17.4615 37.4977 19.0022 39.9473L19.379 40.5307L17.811 46.2065L23.6443 44.6875L24.2032 45.0212C26.5855 46.4188 29.3132 47.1667 32.0723 47.1667ZM37.3772 34.1992C37.803 34.3578 40.0815 35.4697 40.5493 35.7065L40.5692 35.591C40.6141 35.6108 40.6576 35.6298 40.6995 35.6482C41.0936 35.8206 41.3514 35.9334 41.4558 36.1253C41.5713 36.3318 41.5713 37.243 41.1758 38.3432C40.7862 39.4363 38.9265 40.4152 38.0398 40.561C37.2383 40.6765 36.2233 40.7255 35.1115 40.3732C35.0251 40.3436 34.9356 40.3132 34.8429 40.2817C34.2119 40.0673 33.4314 39.8022 32.462 39.3943C28.156 37.5415 25.2352 33.4173 24.6286 32.5609C24.5786 32.4903 24.5444 32.4419 24.5263 32.4188C24.5145 32.4021 24.499 32.3805 24.4801 32.3542C24.1296 31.8667 22.6305 29.7819 22.6305 27.6308C22.6305 25.5265 23.6724 24.4126 24.1601 23.8911C24.1964 23.8523 24.2297 23.8168 24.2592 23.7843C24.685 23.341 25.1902 23.2255 25.4993 23.2255C25.8085 23.2255 26.1188 23.2255 26.386 23.25C26.4142 23.25 26.4433 23.2489 26.4734 23.2477C26.7483 23.2371 27.0969 23.2237 27.4313 24.0398C27.6002 24.4364 27.8713 25.0933 28.1334 25.7282C28.4743 26.554 28.7999 27.3427 28.8652 27.4733C28.9807 27.7043 29.0588 27.9598 28.9072 28.2877C28.8684 28.3592 28.8347 28.4243 28.803 28.4857C28.7001 28.6847 28.6173 28.8448 28.4452 29.0588C28.3853 29.1296 28.3242 29.2031 28.2629 29.2768C28.0819 29.4947 27.8991 29.7145 27.7405 29.8732C27.5095 30.1042 27.2668 30.3655 27.5398 30.8275C27.814 31.2953 28.7368 32.8143 30.1228 34.0475C31.6004 35.3725 32.8838 35.9316 33.5421 36.2183C33.6743 36.2759 33.7814 36.3225 33.8597 36.3622C34.3205 36.5687 34.5888 36.5453 34.8618 36.2408C35.1348 35.9363 36.0285 34.8922 36.3318 34.436C36.6422 33.9682 36.9513 34.0475 37.3772 34.1992Z" fill="#3FB868"/>
<path fill-rule="evenodd" clip-rule="evenodd" d="M32 64C49.6731 64 64 49.6731 64 32C64 14.3269 49.6731 0 32 0C14.3269 0 0 14.3269 0 32C0 49.6731 14.3269 64 32 64ZM32.0723 13.3333C37.0365 13.3333 41.7032 15.2712 45.2522 18.6988L45.2288 18.7583C48.7405 22.2525 50.6667 26.9017 50.6667 31.8413C50.6608 42.0497 42.3238 50.3505 32.0793 50.3505H32.0735C28.9716 50.3429 25.9197 49.5686 23.1893 48.0965L13.3333 50.6667L15.97 41.0837C14.3413 38.2708 13.4908 35.0928 13.4908 31.8355C13.4967 21.6342 21.8337 13.3333 32.0723 13.3333Z" fill="#3FB868"/>
</svg>
