<svg width="16" height="16" viewBox="0 0 16 16" fill="none" xmlns="http://www.w3.org/2000/svg">
<path d="M2.52632 10.9474C3.19634 10.9474 3.83891 11.2135 4.31269 11.6873C4.78647 12.1611 5.05263 12.8037 5.05263 13.4737C5.05263 14.1437 4.78647 14.7863 4.31269 15.2601C3.83891 15.7338 3.19634 16 2.52632 16C1.8563 16 1.21372 15.7338 0.739941 15.2601C0.266165 14.7863 0 14.1437 0 13.4737C0 12.8037 0.266165 12.1611 0.739941 11.6873C1.21372 11.2135 1.8563 10.9474 2.52632 10.9474V10.9474ZM2.52632 11.7895C2.07964 11.7895 1.65125 11.9669 1.3354 12.2828C1.01955 12.5986 0.842105 13.027 0.842105 13.4737C0.842105 13.9204 1.01955 14.3487 1.3354 14.6646C1.65125 14.9805 2.07964 15.1579 2.52632 15.1579C2.973 15.1579 3.40138 14.9805 3.71723 14.6646C4.03308 14.3487 4.21053 13.9204 4.21053 13.4737C4.21053 13.027 4.03308 12.5986 3.71723 12.2828C3.40138 11.9669 2.973 11.7895 2.52632 11.7895ZM0 6.73684C5.11579 6.73684 9.26316 10.8842 9.26316 16H8.42105C8.42105 11.3491 4.65095 7.57895 0 7.57895V6.73684ZM0 3.36842C6.976 3.36842 12.6316 9.024 12.6316 16H11.7895C11.7895 9.48884 6.51116 4.21053 0 4.21053V3.36842ZM0 0C8.83621 0 16 7.16379 16 16H15.1579C15.1579 7.62863 8.37137 0.842105 0 0.842105V0Z" fill="#0E1825"/>
</svg>
