<svg width="24" height="25" viewBox="0 0 24 25" fill="none" xmlns="http://www.w3.org/2000/svg">
<path d="M14.0038 12.5532L11.1963 11.2432C10.9513 11.1295 10.75 11.257 10.75 11.5282V13.9957C10.75 14.267 10.9513 14.3945 11.1963 14.2807L14.0025 12.9707C14.2488 12.8557 14.2488 12.6682 14.0038 12.5532ZM12 0.761963C5.3725 0.761963 0 6.13446 0 12.762C0 19.3895 5.3725 24.762 12 24.762C18.6275 24.762 24 19.3895 24 12.762C24 6.13446 18.6275 0.761963 12 0.761963ZM12 17.637C5.8575 17.637 5.75 17.0832 5.75 12.762C5.75 8.44071 5.8575 7.88696 12 7.88696C18.1425 7.88696 18.25 8.44071 18.25 12.762C18.25 17.0832 18.1425 17.637 12 17.637Z" fill="#4674AF"/>
</svg>
